:version 1.10
:name ASF
:units
  mass 1
  length 1
  angle deg
:documentation
  ASF file generated by Kaydara
:root
  axis xyz
  order  tx ty tz rx ry rz
  position 0 0 0
  orientation 0 0 0
:bonedata
  begin
    id 1
    name RightUpLegDummy
    direction -0.718183 -0.695806 0.00816078
    length 4.904
    axis 0 0 0 xyz
  end
  begin
    id 2
    name RightUpLeg
    direction 3.53373e-006 -0.995788 0.0916898
    length 17.4976
    axis -3.49089 -0.000906625 0.000286804 xyz
    dof rx ry rz
  end
  begin
    id 3
    name RightLeg
    direction 0.00371092 -0.995096 -0.0988419
    length 16.5821
    axis 3.68512 0.0193738 -0.131023 xyz
    dof rx ry rz
  end
  begin
    id 4
    name RightFoot
    direction 0.00079151 -0.46099 0.887405
    length 3.77069
    axis 4.81691e-005 -0.120479 -0.188788 xyz
    dof rx ry rz
  end
  begin
    id 5
    name RightToes
    direction 0 0 0
    length 0
    axis 0 0 0 xyz
    dof rx ry rz
  end
  begin
    id 6
    name SpineDummy
    direction 8.3039e-015 1 4.57515e-016
    length 4.6813
    axis 0 0 0 xyz
  end
  begin
    id 7
    name Spine
    direction -3.15643e-008 0.999988 0.00495137
    length 10.1015
    axis -0.001389 0.000121418 2.40972e-006 xyz
    dof rx ry rz
  end
  begin
    id 8
    name Spine1
    direction 0 0 0
    length 0
    axis -0.001389 0.000121451 1.30017e-006 xyz
    dof rx ry rz
  end
  begin
    id 9
    name HEadDummy
    direction -1.99912e-008 0.999999 0.00127422
    length 3.43865
    axis -0.001389 0.000121451 1.30017e-006 xyz
  end
  begin
    id 10
    name HEad
    direction 0 0 0
    length 0
    axis 0 0 0 xyz
    dof rx ry rz
  end
  begin
    id 11
    name LeftShoulder1Dummy
    direction 0.998891 -0.0402509 -0.0244456
    length 3.5433
    axis -0.001389 0.000121451 1.30017e-006 xyz
  end
  begin
    id 12
    name LeftShoulder1
    direction 0.99951 -0.000327763 0.0313091
    length 4.05031
    axis -0.001389 0.000121451 1.30017e-006 xyz
    dof rx ry rz
  end
  begin
    id 13
    name LeftArm
    direction 0.998561 -0.00100056 -0.0536182
    length 10.3537
    axis -23.1894 0.134784 0.967509 xyz
    dof rx ry rz
  end
  begin
    id 14
    name LeftForeArm
    direction 0.998903 0.00866432 0.046012
    length 8.70632
    axis -9.91835 -0.06569 -0.177794 xyz
    dof rx ry rz
  end
  begin
    id 15
    name LeftHand
    direction 0 0 0
    length 0
    axis 0 0 0 xyz
    dof rx ry rz
  end
  begin
    id 16
    name RightShoulderDummy
    direction -0.998891 -0.0402509 -0.0244414
    length 3.5433
    axis -0.001389 0.000121451 1.30017e-006 xyz
  end
  begin
    id 17
    name RightShoulder
    direction -0.99951 -0.000327807 0.0313133
    length 4.05031
    axis 0.215806 0.000203643 -0.0068026 xyz
    dof rx ry rz
  end
  begin
    id 18
    name RightArm
    direction -0.998573 -0.000999564 -0.053403
    length 10.3947
    axis -23.2009 -0.134239 -0.964101 xyz
    dof rx ry rz
  end
  begin
    id 19
    name RightForeArm
    direction -0.998898 0.00868028 0.0461306
    length 8.68355
    axis -9.92322 0.0658061 0.178868 xyz
    dof rx ry rz
  end
  begin
    id 20
    name RightHand
    direction 0 0 0
    length 0
    axis 0 0 0 xyz
    dof rx ry rz
  end
  begin
    id 21
    name LeftUpLegDummy
    direction 0.718183 -0.695806 0.00816078
    length 4.904
    axis 0 0 0 xyz
  end
  begin
    id 22
    name LeftUpLeg
    direction -6.81752e-006 -0.995793 0.0916337
    length 17.4976
    axis -3.48766 0.00143442 -0.000524262 xyz
    dof rx ry rz
  end
  begin
    id 23
    name LeftLeg
    direction -0.00601358 -0.995091 -0.0987824
    length 16.5821
    axis 3.68178 -0.00654042 -0.000285133 xyz
    dof rx ry rz
  end
  begin
    id 24
    name LeftFoot
    direction -0.00417578 -0.460984 0.887399
    length 3.77069
    axis 1.87233e-006 4.66016e-005 -8.6538e-006 xyz
    dof rx ry rz
  end
  begin
    id 25
    name LeftToes
    direction 0 0 0
    length 0
    axis 0 0 0 xyz
    dof rx ry rz
  end
:hierarchy
  begin
    root RightUpLegDummy SpineDummy LeftUpLegDummy
    RightUpLegDummy RightUpLeg
    RightUpLeg RightLeg
    RightLeg RightFoot
    RightFoot RightToes
    SpineDummy Spine
    Spine Spine1
    Spine1 HEadDummy LeftShoulder1Dummy RightShoulderDummy
    HEadDummy HEad
    LeftShoulder1Dummy LeftShoulder1
    LeftShoulder1 LeftArm
    LeftArm LeftForeArm
    LeftForeArm LeftHand
    RightShoulderDummy RightShoulder
    RightShoulder RightArm
    RightArm RightForeArm
    RightForeArm RightHand
    LeftUpLegDummy LeftUpLeg
    LeftUpLeg LeftLeg
    LeftLeg LeftFoot
    LeftFoot LeftToes
  end

:SAMPLES-PER-SECOND 30
:FULLY-SPECIFIED
:DEGREES
16
root  74.4585 40.3371 1.46243 165.148 -86.8112 -169.54
RightUpLeg  4.0366 -9.01848 -6.14882
RightLeg  4.68192 -9.77991 3.52544
RightFoot  -2.03008 -0.0523727 0.473644
RightToes  0.000481921 0.542163 -0.142578
Spine  0.203712 1.08315 0.229565
Spine1  7.53866 0.830145 1.58351
HEad  -4.19347 2.02207 2.50751
LeftShoulder1  1.28587 -3.68104 -10.5984
LeftArm  -17.6389 7.83956 0.423094
LeftForeArm  7.93576 -0.215184 -1.55041
LeftHand  -0.25398 0.0180481 5.50724
RightShoulder  0.279045 -1.08942 3.56417
RightArm  -30.6117 -2.99049 2.21811
RightForeArm  1.30737 0.462004 -0.344926
RightHand  -1.1299 5.50653 -12.379
LeftUpLeg  5.60318 7.11335 5.81054
LeftLeg  5.69095 14.0755 -2.12518
LeftFoot  -5.70475 0.139217 -2.13214
LeftToes  1.06245e-005 4.65868e-005 -8.65515e-006
17
root  74.4206 40.3312 1.51855 165.39 -86.7438 -169.732
RightUpLeg  4.01647 -9.04174 -6.23873
RightLeg  4.70548 -9.66223 3.50232
RightFoot  -2.07269 -0.0623142 0.602836
RightToes  0.000481921 0.542163 -0.142578
Spine  0.00167653 0.99929 0.287667
Spine1  7.88289 0.745474 1.53783
HEad  -4.35104 2.0092 2.25059
LeftShoulder1  1.2754 -3.54089 -10.8245
LeftArm  -17.7425 7.77785 0.439711
LeftForeArm  7.2 -0.0739781 -1.52136
LeftHand  -0.25398 0.0180481 5.50724
RightShoulder  0.279547 -1.01308 3.21009
RightArm  -30.748 -2.94209 2.52589
RightForeArm  1.50201 0.389879 -0.400129
RightHand  -1.1245 5.51119 -12.3173
LeftUpLeg  5.56219 7.12929 5.72247
LeftLeg  5.82568 14.121 -2.09654
LeftFoot  -5.89228 0.137041 -2.13421
LeftToes  1.06245e-005 4.65868e-005 -8.65515e-006
18
root  74.3698 40.3235 1.57934 165.524 -86.6012 -169.841
RightUpLeg  4.01386 -9.07094 -6.32429
RightLeg  4.7729 -9.54518 3.48387
RightFoot  -2.10263 -0.0705266 0.701265
RightToes  0.000481921 0.542163 -0.142578
Spine  -0.249514 1.00908 0.425632
Spine1  8.27196 0.783255 1.40121
HEad  -4.51083 1.93587 1.95107
LeftShoulder1  1.25624 -3.41642 -10.8761
LeftArm  -18.0436 7.56549 0.222914
LeftForeArm  6.9243 0.171193 -1.40743
LeftHand  -0.25398 0.0180481 5.50724
RightShoulder  0.273123 -1.0619 3.27536
RightArm  -31.023 -2.73682 2.53624
RightForeArm  1.63646 0.34181 -0.480453
RightHand  -1.1507 5.70282 -12.3893
LeftUpLeg  5.57181 7.16328 5.63484
LeftLeg  5.97833 14.2446 -2.0371
LeftFoot  -6.12261 0.131712 -2.06994
LeftToes  1.06245e-005 4.65868e-005 -8.65515e-006
19
root  74.3182 40.3151 1.6513 165.672 -86.4464 -170.021
RightUpLeg  4.05811 -9.12608 -6.45225
RightLeg  4.87602 -9.29287 3.47032
RightFoot  -2.17896 -0.0796965 0.809313
RightToes  0.000481921 0.542163 -0.142578
Spine  -0.0645386 1.14134 0.587175
Spine1  8.09484 0.967878 1.22419
HEad  -4.35407 1.81145 1.67856
LeftShoulder1  1.28442 -3.58246 -10.8482
LeftArm  -18.1934 7.57449 -0.0636596
LeftForeArm  6.87336 0.107004 -1.36467
LeftHand  -0.25398 0.0180481 5.50724
RightShoulder  0.269586 -1.21594 3.80958
RightArm  -31.1043 -2.70181 2.13237
RightForeArm  1.59485 0.620109 -0.450915
RightHand  -1.18767 5.88477 -12.5798
LeftUpLeg  5.64366 7.1416 5.49646
LeftLeg  6.13189 14.4416 -1.91654
LeftFoot  -6.39864 0.127716 -2.01804
LeftToes  1.06245e-005 4.65868e-005 -8.65515e-006
20
root  74.2724 40.304 1.745 165.858 -86.3269 -170.201
RightUpLeg  4.08482 -9.23168 -6.6546
RightLeg  4.93242 -8.88599 3.50759
RightFoot  -2.2655 -0.0981054 1.0425
RightToes  0.000481921 0.542163 -0.142578
Spine  0.372702 1.21077 0.755833
Spine1  7.53031 1.07959 1.08658
HEad  -3.71797 1.84443 1.37414
LeftShoulder1  1.33085 -3.77638 -11.0226
LeftArm  -18.7066 8.01789 -0.389218
LeftForeArm  7.39485 -0.573974 -1.1709
LeftHand  -0.25398 0.0180481 5.50724
RightShoulder  0.277178 -1.25329 4.41656
RightArm  -31.2515 -2.81921 1.86471
RightForeArm  1.2667 1.34636 -0.335954
RightHand  -1.25861 6.1206 -13.0457
LeftUpLeg  5.59017 7.10565 5.27016
LeftLeg  6.42868 14.6194 -1.68763
LeftFoot  -6.78498 0.127558 -2.0229
LeftToes  1.06245e-005 4.65868e-005 -8.65515e-006
21
root  74.2203 40.2913 1.86676 166.157 -86.1499 -170.414
RightUpLeg  4.05865 -9.37659 -6.90459
RightLeg  4.91534 -8.47713 3.58397
RightFoot  -2.23064 -0.121207 1.3328
RightToes  0.000481921 0.542163 -0.142578
Spine  0.507853 1.12396 0.995368
Spine1  7.29631 1.00195 1.03812
HEad  -2.8977 2.1461 0.896777
LeftShoulder1  1.34213 -3.59314 -11.7234
LeftArm  -20.4215 8.7538 -0.899761
LeftForeArm  9.11988 -2.06864 -0.529517
LeftHand  -0.25398 0.0180481 5.50724
RightShoulder  0.306571 -1.09417 4.88137
RightArm  -32.0046 -2.85319 2.34038
RightForeArm  -0.252743 2.62563 -0.157995
RightHand  -1.46117 6.67557 -14.3934
LeftUpLeg  5.40314 7.14713 4.98152
LeftLeg  6.86227 14.8138 -1.39507
LeftFoot  -7.2921 0.120986 -1.93052
LeftToes  1.06245e-005 4.65868e-005 -8.65515e-006
22
root  74.1486 40.2809 2.01614 166.717 -85.7418 -170.892
RightUpLeg  4.01746 -9.47161 -7.12975
RightLeg  4.8885 -8.00722 3.60568
RightFoot  -2.11818 -0.135699 1.50263
RightToes  0.000481921 0.542163 -0.142578
Spine  0.302623 1.06101 1.41381
Spine1  7.55354 0.948275 0.951935
HEad  -2.2121 2.50739 0.256344
LeftShoulder1  1.37678 -3.29579 -13.1792
LeftArm  -22.942 9.83863 -1.71451
LeftForeArm  10.7734 -4.80423 0.200034
LeftHand  -0.25398 0.0180481 5.50724
RightShoulder  0.361271 -0.810779 5.66208
RightArm  -33.1951 -3.0653 3.4224
RightForeArm  -4.07755 5.01386 0.331913
RightHand  -1.86225 7.50773 -17.0546
LeftUpLeg  5.34351 7.22907 4.69763
LeftLeg  7.19733 15.2284 -1.18364
LeftFoot  -7.87864 0.102958 -1.66795
LeftToes  1.06245e-005 4.65868e-005 -8.65515e-006
23
root  74.0615 40.2699 2.19214 167.822 -85.1137 -171.992
RightUpLeg  3.99098 -9.49314 -7.37316
RightLeg  4.91952 -7.20959 3.53636
RightFoot  -2.13329 -0.149072 1.6686
RightToes  0.000481921 0.542163 -0.142578
Spine  0.193206 1.17829 2.00786
Spine1  7.84764 1.13424 0.606534
HEad  -1.53041 2.63551 -0.29973
LeftShoulder1  1.55906 -3.48504 -15.4159
LeftArm  -25.3232 11.5408 -2.91743
LeftForeArm  10.8902 -9.05035 0.344006
LeftHand  -0.25398 0.0180481 5.50724
RightShoulder  0.472604 -0.360881 7.4656
RightArm  -34.1555 -4.10041 4.49747
RightForeArm  -9.35166 9.1729 1.46011
RightHand  -2.39734 8.38946 -20.4259
LeftUpLeg  5.53177 7.22122 4.40324
LeftLeg  7.3315 15.9379 -1.12764
LeftFoot  -8.52515 0.0868492 -1.44862
LeftToes  1.06245e-005 4.65868e-005 -8.65515e-006
